<svg id="visual" viewBox="0 0 1920 1080" width="1920" height="1080" xmlns="http://www.w3.org/2000/svg" xmlns:xlink="http://www.w3.org/1999/xlink" version="1.1"><rect x="0" y="0" width="1920" height="1080" fill="#c4d8ff"></rect><path d="M0 777L320 715L640 819L960 684L1280 759L1600 774L1920 833L1920 1081L1600 1081L1280 1081L960 1081L640 1081L320 1081L0 1081Z" fill="#9490ff"></path><path d="M0 818L320 873L640 790L960 874L1280 806L1600 800L1920 717L1920 1081L1600 1081L1280 1081L960 1081L640 1081L320 1081L0 1081Z" fill="#6c6bc9"></path><path d="M0 794L320 844L640 843L960 893L1280 796L1600 886L1920 875L1920 1081L1600 1081L1280 1081L960 1081L640 1081L320 1081L0 1081Z" fill="#454895"></path><path d="M0 966L320 888L640 957L960 982L1280 882L1600 980L1920 980L1920 1081L1600 1081L1280 1081L960 1081L640 1081L320 1081L0 1081Z" fill="#202864"></path><path d="M0 955L320 964L640 973L960 1022L1280 1004L1600 1012L1920 970L1920 1081L1600 1081L1280 1081L960 1081L640 1081L320 1081L0 1081Z" fill="#000737"></path></svg>